<?xml version="1.0" standalone="no"?>
<!DOCTYPE svg PUBLIC "-//W3C//DTD SVG 20010904//EN"
 "http://www.w3.org/TR/2001/REC-SVG-20010904/DTD/svg10.dtd">
<svg version="1.0" xmlns="http://www.w3.org/2000/svg"
 width="32.000000pt" height="32.000000pt" viewBox="0 0 32.000000 32.000000"
 preserveAspectRatio="xMidYMid meet">

<g transform="translate(0.000000,32.000000) scale(0.100000,-0.100000)"
fill="#000000" stroke="none">
<path d="M115 239 c-17 -11 -48 -19 -72 -19 -39 0 -43 -2 -43 -25 0 -23 3 -25
48 -25 61 0 112 30 112 65 0 29 -5 30 -45 4z"/>
<path d="M155 184 c-44 -25 -73 -34 -107 -34 -44 0 -48 -2 -48 -25 0 -23 3
-25 50 -25 38 0 68 9 120 35 45 23 84 35 110 35 36 0 40 2 40 25 0 24 -3 25
-52 24 -40 -1 -68 -10 -113 -35z"/>
<path d="M193 130 c-23 -14 -33 -27 -33 -45 0 -30 1 -30 50 -5 22 11 55 20 75
20 31 0 35 3 35 25 0 23 -3 25 -47 25 -30 0 -60 -8 -80 -20z"/>
</g>
</svg>
